# xmcd
#
# Track frame offsets: 
#        150
#        12182
#        32597
#        43276
#        56478
#        65428
#        76994
#        87821
#
# Disc length: 1357 seconds
#
# Revision: 0
# Processed by: cddbd v1.5.2PL0 Copyright (c) Steve Scherf et al.
# Submitted via: ExactAudioCopy v1.0b3
#
DISCID=5b054b08
DTITLE=Wayne Taylor and Friends - Praise His Holy Name
DYEAR=2012
DGENRE=Christmas
TTITLE0=Go Tell It On The Mountain
TTITLE1=Praise His Holy Name
TTITLE2=Santa Looked A Lot Like Daddy
TTITLE3=White Christmas
TTITLE4=Dueling Jingle Bells
TTITLE5=Away In A Manger
TTITLE6=Winter Wonderland
TTITLE7=Silent Night
EXTD=
EXTT0=
EXTT1=
EXTT2=
EXTT3=
EXTT4=
EXTT5=
EXTT6=
EXTT7=
PLAYORDER=
